<svg id="Capa_1" enable-background="new 0 0 512 512" height="512" viewBox="0 0 512 512" width="512" xmlns="http://www.w3.org/2000/svg" xmlns:xlink="http://www.w3.org/1999/xlink"><linearGradient id="SVGID_1_" gradientUnits="userSpaceOnUse" x1="74.98" x2="437.019" y1="437.019" y2="74.98"><stop offset="0" stop-color="#008a4c"/><stop offset="1" stop-color="#d3ff33"/></linearGradient><radialGradient id="SVGID_2_" cx="256" cy="255.999" gradientUnits="userSpaceOnUse" r="256"><stop offset="0" stop-color="#008a4c" stop-opacity=".8"/><stop offset="1" stop-color="#d3ff33" stop-opacity="0"/></radialGradient><linearGradient id="lg1"><stop offset="0" stop-color="#95e12e"/><stop offset=".8" stop-color="#ddff59"/><stop offset="1" stop-color="#e6fe7f"/></linearGradient><linearGradient id="SVGID_3_" gradientUnits="userSpaceOnUse" x1="-617.376" x2="376.712" xlink:href="#lg1" y1="1063.793" y2="69.705"/><linearGradient id="lg2"><stop offset="0" stop-color="#ddff59"/><stop offset="1" stop-color="#fff"/></linearGradient><linearGradient id="SVGID_4_" gradientUnits="userSpaceOnUse" x1="-517.518" x2="453.885" xlink:href="#lg2" y1="1118.208" y2="146.805"/><linearGradient id="SVGID_5_" gradientUnits="userSpaceOnUse" x1="-123.671" x2="729.683" xlink:href="#lg2" y1="652.621" y2="-200.733"/><linearGradient id="lg3"><stop offset="0" stop-color="#007a43"/><stop offset=".1212" stop-color="#128642"/><stop offset=".3647" stop-color="#41a33e"/><stop offset=".7046" stop-color="#8cd338"/><stop offset="1" stop-color="#d3ff33"/></linearGradient><linearGradient id="SVGID_6_" gradientUnits="userSpaceOnUse" x1="78.608" x2="343.833" xlink:href="#lg3" y1="268.141" y2="2.917"/><linearGradient id="SVGID_7_" gradientUnits="userSpaceOnUse" x1="-3.689" x2="396.166" xlink:href="#lg3" y1="326.884" y2="-72.97"/><linearGradient id="SVGID_8_" gradientUnits="userSpaceOnUse" x1="136.769" x2="402.363" xlink:href="#lg1" y1="537.593" y2="271.998"/><linearGradient id="SVGID_9_" gradientUnits="userSpaceOnUse" x1="226.095" x2="357.377" xlink:href="#lg1" y1="448.268" y2="316.986"/><linearGradient id="SVGID_10_" gradientUnits="userSpaceOnUse" x1="97.855" x2="373.796" xlink:href="#lg3" y1="428.803" y2="152.862"/><linearGradient id="SVGID_11_" gradientUnits="userSpaceOnUse" x1="91.963" x2="462.616" xlink:href="#lg3" y1="537.745" y2="167.092"/><linearGradient id="SVGID_12_" gradientUnits="userSpaceOnUse" x1="-152.948" x2="364.77" xlink:href="#lg3" y1="539.995" y2="22.277"/><linearGradient id="SVGID_13_" gradientUnits="userSpaceOnUse" x1="-861.761" x2="604.928" xlink:href="#lg3" y1="1346.215" y2="-120.475"/><linearGradient id="SVGID_14_" gradientUnits="userSpaceOnUse" x1="64.313" x2="362.649" xlink:href="#lg2" y1="344.434" y2="46.098"/><linearGradient id="SVGID_15_" gradientUnits="userSpaceOnUse" x1="-335.422" x2="366.634" xlink:href="#lg2" y1="827.05" y2="124.994"/><linearGradient id="SVGID_16_" gradientUnits="userSpaceOnUse" x1="54.129" x2="401.117" xlink:href="#lg3" y1="403.706" y2="56.718"/><linearGradient id="SVGID_17_" gradientUnits="userSpaceOnUse" x1="143.939" x2="354.709" xlink:href="#lg3" y1="313.901" y2="103.131"/><linearGradient id="SVGID_18_" gradientUnits="userSpaceOnUse" x1="80.252" x2="399.95" xlink:href="#lg3" y1="405.488" y2="85.79"/><linearGradient id="SVGID_19_" gradientUnits="userSpaceOnUse" x1="58.791" x2="444.07" xlink:href="#lg3" y1="494.591" y2="109.313"/><g><circle cx="256" cy="256" fill="url(#SVGID_1_)" r="256"/><circle cx="256" cy="256" fill="url(#SVGID_2_)" r="256"/><path d="m134.163 90c-2.893 110.667-2.893 221.333 0 332 .454 16.525 14.311 31.089 30.855 32.129 19.857 1.209 39.715 2.023 59.572 2.441-1.047-133.713-1.047-267.426 0-401.139-19.857.418-39.715 1.231-59.572 2.441-16.543 1.039-30.401 15.604-30.855 32.128z" fill="url(#SVGID_3_)"/><path d="m346.587 57.847c-4.856-.294-9.713-.565-14.569-.813 2.534 132.644 2.534 265.287 0 397.931 4.988-.254 9.976-.533 14.964-.837 16.557-1.04 30.421-15.628 30.856-32.165 2.759-110.658 2.617-221.333-.4-332.027-.473-16.513-14.322-31.055-30.851-32.089z" fill="url(#SVGID_4_)"/><path d="m317.249 240.76c15.742-51.252 31.144-102.01 45.518-151.723-.402-16.625-14.205-31.134-30.749-32.002-40.809-2.077-81.619-2.482-122.428-1.213-8.278.26-15.1 7.388-15.226 15.82-1.673 117.813-1.743 235.627-.208 353.44.241 16.851 13.89 31.13 30.434 31.489 35.805.753 71.61.218 107.415-1.604 16.549-.868 30.357-15.385 30.749-32.016.458-20.111.834-40.222 1.126-60.333-15.097-39.963-30.787-80.729-46.631-121.858z" fill="url(#SVGID_5_)"/><path d="m277.814 70.621c-7.271-.097-14.543-.146-21.814-.146v15.375c7.296 0 14.592.045 21.888.134 4.172.05 7.534-3.329 7.505-7.568s-3.423-7.739-7.579-7.795z" fill="url(#SVGID_6_)"/><path d="m263.541 78.179c-.008-4.245-3.385-7.704-7.541-7.704-7.391 0-14.781.05-22.172.151-4.155.057-7.551 3.558-7.579 7.796-.029 4.239 3.332 7.618 7.504 7.566 7.416-.092 14.831-.138 22.247-.138 4.173 0 7.549-3.426 7.541-7.671z" fill="url(#SVGID_7_)"/><path d="m278.713 418.325c-.069 12.72-10.235 23.199-22.695 23.2-12.46 0-22.625-10.48-22.695-23.199-.068-12.724 10.098-22.92 22.695-22.926 12.597.005 22.762 10.201 22.695 22.925z" fill="url(#SVGID_8_)"/><path d="m263.571 426.134c-12.503.054-22.681-10.375-22.727-23.102-.002-.634.029-1.26.077-1.881-4.693 4.19-7.63 10.311-7.597 17.174.069 12.719 10.235 23.199 22.695 23.199 11.841 0 21.598-9.465 22.605-21.318-4.022 3.657-9.288 5.904-15.053 5.928z" fill="url(#SVGID_9_)"/><path d="m239.241 333.865c-30.491-.127-60.983-.602-91.475-1.423.105 10.058.23 20.116.377 30.174.125 8.323 7.058 15.379 15.467 15.698 10.01.371 20.02.681 30.03.932 15.087-14.898 30.307-30.077 45.601-45.381z" fill="url(#SVGID_10_)"/><path d="m193.285 333.411c.091 15.278.209 30.557.354 45.835 51.591 1.29 103.182.979 154.773-.932 8.408-.319 15.342-7.374 15.467-15.696.391-28.232.367-30.176.38-30.176-56.99 1.535-113.982 1.858-170.974.969z" fill="url(#SVGID_11_)"/><path d="m164.683 73.034c-8.309.473-15.22 7.678-15.414 16.001-1.847 81.136-2.348 162.271-1.502 243.407.089 8.323 7.023 15.305 15.467 15.546 10.051.279 20.101.512 30.152.701 20.578-40.691 41.644-82.097 62.614-123.439-20.97-51.592-41.819-103.119-61.636-153.609-9.894.374-19.787.839-29.681 1.393z" fill="url(#SVGID_12_)"/><path d="m362.755 89.027c-.196-8.322-7.106-15.518-15.414-15.991-10.033-.562-20.066-1.032-30.099-1.409-7.566 7.502-15.18 15.094-22.835 22.757-4.106 4.353-9.955 7.035-16.452 6.964-14.757-.164-29.513-.162-44.27.004-6.263.07-11.929-2.415-16.006-6.492-.055-.071-23.357-23.295-23.315-23.218-1.312 92.349-1.638 184.699-.978 277.048 51.801.97 103.603.736 155.404-.701 8.444-.242 15.377-7.221 15.467-15.545 1.122-28.234-.154-219.889-1.502-243.417z" fill="url(#SVGID_13_)"/><path d="m178.929 126.062c-8.398.281-15.315 7.344-15.429 15.71-.74 55.934-.937 111.868-.59 167.803.054 8.367 6.973 15.301 15.437 15.454 4.964.086 9.928.163 14.892.233 20.743-32.981 41.791-66.529 62.761-100.012-20.97-33.483-41.861-66.902-62.291-99.625-4.927.13-9.854.276-14.78.437z" fill="url(#SVGID_14_)"/><path d="m332.075 126.03c-46.122-1.491-92.244-1.626-138.366-.405-.668 66.546-.825 133.092-.47 199.637 46.47.649 92.94.577 139.41-.215 8.464-.15 15.383-7.086 15.436-15.455.344-55.951.149-111.902-.583-167.853-.113-8.369-7.028-15.432-15.427-15.709z" fill="url(#SVGID_15_)"/><path d="m302.043 201.859c.085 25.355-20.569 45.92-46.043 45.942-25.474-.021-46.127-20.587-46.043-45.942.099-25.348 20.752-46.294 46.043-46.308 25.291.014 45.945 20.959 46.043 46.308z" fill="url(#SVGID_16_)"/><path d="m271.361 217.065c-25.46-.06-46.072-20.597-45.976-46.012.004-1.267.073-2.519.177-3.76-9.51 8.524-15.562 20.88-15.604 34.566-.085 25.355 20.569 45.92 46.043 45.942 24.204-.016 44.045-18.6 45.888-42.191-8.109 7.133-18.802 11.477-30.528 11.455z" fill="url(#SVGID_17_)"/><path d="m178.215 300.811c-.918 4.651 2.791 9.027 7.585 9.088 2.456.03 4.912.058 7.367.085 5.092-5.703 10.193-11.43 15.302-17.176-5.133-5.802-10.267-11.596-15.4-17.374-7.513 6.493-12.87 15.329-14.854 25.377z" fill="url(#SVGID_18_)"/><path d="m332.78 300.823c-4.12-20.85-22.774-36.632-45.138-36.636-21.43.018-42.86.017-64.291-.001-11.597-.01-22.189 4.257-30.282 11.247.017 11.517.05 23.033.098 34.55 32.689.516 107.075.375 132.029-.073 4.792-.059 8.504-4.435 7.584-9.087z" fill="url(#SVGID_19_)"/></g></svg>